<?xml version="1.0" encoding="UTF-8" standalone="no"?>
<svg
   width="98"
   height="96"
   version="1.1"
   id="svg1"
   sodipodi:docname="github.svg"
   inkscape:version="1.3.2 (091e20ef0f, 2023-11-25, custom)"
   xmlns:inkscape="http://www.inkscape.org/namespaces/inkscape"
   xmlns:sodipodi="http://sodipodi.sourceforge.net/DTD/sodipodi-0.dtd"
   xmlns="http://www.w3.org/2000/svg"
   xmlns:svg="http://www.w3.org/2000/svg">
  <defs
     id="defs1" />
  <sodipodi:namedview
     id="namedview1"
     pagecolor="#ffffff"
     bordercolor="#000000"
     borderopacity="0.25"
     inkscape:showpageshadow="2"
     inkscape:pageopacity="0.0"
     inkscape:pagecheckerboard="0"
     inkscape:deskcolor="#d1d1d1"
     inkscape:zoom="8.5"
     inkscape:cx="49"
     inkscape:cy="33.882353"
     inkscape:window-width="1920"
     inkscape:window-height="1020"
     inkscape:window-x="0"
     inkscape:window-y="0"
     inkscape:window-maximized="1"
     inkscape:current-layer="svg1" />
  <path
     fill-rule="evenodd"
     clip-rule="evenodd"
     d="m 49.376713,1.8823534 c -25.838621,0 -46.7266309,21.0419976 -46.7266309,47.0738216 0,20.808627 13.3836679,38.422692 31.9503639,44.656865 2.321315,0.468662 3.171602,-1.012887 3.171602,-2.259147 0,-1.091314 -0.07652,-4.832008 -0.07652,-8.729561 C 24.697309,85.43057 21.990543,77.012814 21.990543,77.012814 19.901646,71.557197 16.80656,70.155035 16.80656,70.155035 c -4.254308,-2.883711 0.309891,-2.883711 0.309891,-2.883711 4.719147,0.311804 7.195408,4.832009 7.195408,4.832009 4.176836,7.169583 10.907408,5.143811 13.61513,3.896596 0.386409,-3.039614 1.625017,-5.143813 2.940142,-6.312601 -10.367017,-1.091315 -21.274424,-5.143813 -21.274424,-23.225586 0,-5.143812 1.855521,-9.352212 4.795664,-12.625199 -0.463882,-1.168788 -2.088897,-6.001753 0.464837,-12.470256 0,0 3.945375,-1.247216 12.841357,4.83201 a 44.924671,44.924671 0 0 1 11.682141,-1.559022 c 3.945375,0 7.967266,0.546136 11.681179,1.559022 8.89694,-6.079226 12.842316,-4.83201 12.842316,-4.83201 2.553733,6.468503 0.92776,11.301468 0.463881,12.470256 3.017613,3.272987 4.796619,7.481387 4.796619,12.625199 0,18.081773 -10.907407,22.055844 -21.351891,23.225586 1.702488,1.480592 3.171602,4.285872 3.171602,8.728605 0,6.3126 -0.07652,11.378939 -0.07652,12.937004 0,1.247216 0.851244,2.728765 3.171601,2.261057 C 82.642201,87.377912 96.025869,69.764802 96.025869,48.956175 96.102391,22.924351 75.137859,1.8823534 49.376713,1.8823534 Z"
     fill="#ffffff"
     id="path1"
     style="stroke-width:0.956454;fill:#ffffff" />
</svg>
