<?xml version="1.0" encoding="UTF-8" standalone="no"?>
<svg
   width="74"
   height="79"
   viewBox="0 0 74 79"
   fill="white"
   version="1.1"
   id="svg1"
   sodipodi:docname="Mastodon.svg"
   inkscape:version="1.3.2 (091e20ef0f, 2023-11-25, custom)"
   xmlns:inkscape="http://www.inkscape.org/namespaces/inkscape"
   xmlns:sodipodi="http://sodipodi.sourceforge.net/DTD/sodipodi-0.dtd"
   xmlns="http://www.w3.org/2000/svg"
   xmlns:svg="http://www.w3.org/2000/svg">
  <defs
     id="defs1" />
  <sodipodi:namedview
     id="namedview1"
     pagecolor="#ffffff"
     bordercolor="#000000"
     borderopacity="0.25"
     inkscape:showpageshadow="2"
     inkscape:pageopacity="0.0"
     inkscape:pagecheckerboard="0"
     inkscape:deskcolor="#d1d1d1"
     inkscape:zoom="10.329114"
     inkscape:cx="13.89277"
     inkscape:cy="45.696078"
     inkscape:window-width="1920"
     inkscape:window-height="1020"
     inkscape:window-x="0"
     inkscape:window-y="0"
     inkscape:window-maximized="1"
     inkscape:current-layer="svg1" />
  <path
     d="M 62.985639,23.601781 C 62.259004,17.971175 57.551476,13.533882 51.971065,12.674051 51.029585,12.528768 47.46238,12 39.199184,12 h -0.06172 c -8.26549,0 -10.038796,0.52876 -10.980277,0.674051 -5.425047,0.836008 -10.379309,4.823143 -11.58132,10.520433 -0.57815,2.805761 -0.639851,5.916389 -0.532448,8.769753 0.153103,4.091931 0.182816,8.176702 0.539303,12.252023 0.246451,2.706974 0.676378,5.39241 1.286561,8.036186 1.142589,4.882687 5.767808,8.946053 10.299316,10.603732 4.851668,1.728777 10.069207,2.015815 15.068525,0.828905 0.549919,-0.133424 1.093845,-0.288185 1.631588,-0.464488 1.213443,-0.402502 2.637138,-0.852673 3.683745,-1.643429 0.01427,-0.01102 0.02615,-0.02539 0.03443,-0.04194 0.0082,-0.01646 0.01299,-0.0347 0.01346,-0.05334 v -3.948982 c -2.54e-4,-0.01743 -0.0043,-0.03458 -0.01173,-0.05018 -0.0074,-0.01558 -0.01805,-0.02924 -0.03124,-0.03997 -0.01314,-0.01067 -0.02843,-0.01822 -0.0447,-0.02201 -0.01633,-0.0036 -0.03321,-0.0036 -0.04947,2.01e-4 -3.202997,0.797443 -6.485235,1.197176 -9.77831,1.190896 -5.66724,0 -7.191473,-2.803399 -7.627976,-3.970456 -0.350825,-1.008652 -0.573637,-2.060855 -0.662695,-3.129738 -9.3e-4,-0.01789 0.0022,-0.03585 0.0092,-0.05226 0.007,-0.01647 0.01759,-0.03092 0.03092,-0.04232 0.01331,-0.01137 0.02914,-0.01924 0.04596,-0.0231 0.01683,-0.004 0.03429,-0.0035 0.05099,10e-4 3.149636,0.79204 6.378323,1.191772 9.618359,1.190897 0.779233,0 1.55617,0 2.335467,-0.02141 3.25865,-0.09526 6.693253,-0.269143 9.899374,-0.921817 0.07999,-0.01661 0.15995,-0.03092 0.228548,-0.05239 5.057074,-1.012229 9.869663,-4.189567 10.358702,-12.235278 0.0183,-0.316746 0.06401,-3.317849 0.06401,-3.646549 0.0022,-1.117025 0.345088,-7.924237 -0.0503,-12.106648 z M 55.202302,43.677969 H 49.88474 V 30.101697 c 0,-2.85816 -1.142615,-4.315835 -3.466674,-4.315835 -2.554833,0 -3.834514,1.72439 -3.834514,5.130425 v 7.431188 h -5.285625 v -7.431188 c 0,-3.406035 -1.281975,-5.130425 -3.83681,-5.130425 -2.310349,0 -3.464377,1.457675 -3.466671,4.315835 V 43.677969 H 24.681407 V 29.689607 c 0,-2.858161 0.700054,-5.128805 2.100098,-6.811937 1.444223,-1.67915 3.338657,-2.541344 5.690127,-2.541344 2.721609,0 4.778289,1.090826 6.149391,3.270181 l 1.323159,2.315143 1.325389,-2.315143 c 1.371103,-2.179355 3.427786,-3.270181 6.144867,-3.270181 2.349173,0 4.243543,0.862194 5.692357,2.541344 1.400108,1.68158 2.100096,3.952225 2.100096,6.811937 z"
     fill="inherit"
     id="path1"
     style="fill:#ffffff;stroke-width:0.656098" />
</svg>
