<?xml version="1.0" encoding="UTF-8" standalone="no"?>
<svg
   viewBox="0 0 27.9 32"
   version="1.1"
   id="svg1"
   sodipodi:docname="matrix.svg"
   inkscape:version="1.3.2 (091e20ef0f, 2023-11-25, custom)"
   xmlns:inkscape="http://www.inkscape.org/namespaces/inkscape"
   xmlns:sodipodi="http://sodipodi.sourceforge.net/DTD/sodipodi-0.dtd"
   xmlns="http://www.w3.org/2000/svg"
   xmlns:svg="http://www.w3.org/2000/svg">
  <defs
     id="defs1" />
  <sodipodi:namedview
     id="namedview1"
     pagecolor="#ffffff"
     bordercolor="#000000"
     borderopacity="0.25"
     inkscape:showpageshadow="2"
     inkscape:pageopacity="0.0"
     inkscape:pagecheckerboard="0"
     inkscape:deskcolor="#d1d1d1"
     inkscape:zoom="25.5"
     inkscape:cx="13.941176"
     inkscape:cy="16"
     inkscape:window-width="1920"
     inkscape:window-height="1020"
     inkscape:window-x="0"
     inkscape:window-y="0"
     inkscape:window-maximized="1"
     inkscape:current-layer="svg1" />
  <path
     d="M 24.350075,28.077449 V 4.1924316 H 22.635052 V 3.6191913 h 2.380671 V 28.678882 h -2.380671 v -0.57324 z M 9.5726872,11.788651 v 1.205998 h 0.034459 a 3.5240191,3.5240191 0 0 1 1.1668408,-1.072868 c 0.454207,-0.252948 0.978896,-0.379811 1.558401,-0.379811 0.563842,0 1.080699,0.109632 1.542736,0.328908 q 0.700106,0.327342 1.065037,1.15901 0.395474,-0.587335 1.080699,-1.033711 c 0.454203,-0.299934 0.994553,-0.449509 1.613214,-0.449509 q 0.707935,0 1.307802,0.172286 0.603782,0.173851 1.033713,0.553663 0.430712,0.379026 0.672695,0.994554 0.241201,0.611615 0.241201,1.480089 v 5.97517 h -2.451151 v -5.058924 q 0,-0.450292 -0.03446,-0.845764 a 1.8011654,1.8011654 0 0 0 -0.189511,-0.690709 1.1511796,1.1511796 0 0 0 -0.457339,-0.466735 q -0.3015,-0.172288 -0.822271,-0.172288 -0.516858,0 -0.837933,0.198128 -0.319511,0.199696 -0.50041,0.518423 a 2.1144114,2.1144114 0 0 0 -0.241201,0.725948 5.4818073,5.4818073 0 0 0 -0.06109,0.822271 v 4.972782 h -2.45115 v -5.011938 q 0,-0.397821 -0.01645,-0.783115 A 2.1927229,2.1927229 0 0 0 12.679295,14.213176 1.0963615,1.0963615 0 0 0 12.248583,13.686138 Q 11.946308,13.488793 11.355838,13.48801 a 1.8011654,1.8011654 0 0 0 -0.457338,0.07831 1.527075,1.527075 0 0 0 -0.552096,0.292885 q -0.267044,0.216141 -0.4573406,0.621796 -0.1902959,0.405652 -0.189513,1.065036 v 5.184225 H 7.248401 V 11.802748 Z M 3.8606448,4.2174914 V 28.10251 h 1.7150225 v 0.573241 H 3.1949965 V 3.6160588 H 5.567836 v 0.5732405 z"
     fill="#040404"
     id="path1"
     style="fill:#ffffff;stroke-width:0.783115" />
</svg>
