<?xml version="1.0" encoding="UTF-8" standalone="no"?>
<!-- Uploaded to: SVG Repo, www.svgrepo.com, Generator: SVG Repo Mixer Tools -->

<svg
   width="800px"
   height="800px"
   viewBox="0 0 16 16"
   version="1.1"
   id="svg1"
   sodipodi:docname="Appgrid.svg"
   inkscape:version="1.3.2 (091e20ef0f, 2023-11-25, custom)"
   xmlns:inkscape="http://www.inkscape.org/namespaces/inkscape"
   xmlns:sodipodi="http://sodipodi.sourceforge.net/DTD/sodipodi-0.dtd"
   xmlns="http://www.w3.org/2000/svg"
   xmlns:svg="http://www.w3.org/2000/svg">
  <defs
     id="defs1" />
  <sodipodi:namedview
     id="namedview1"
     pagecolor="#505050"
     bordercolor="#ffffff"
     borderopacity="1"
     inkscape:showpageshadow="0"
     inkscape:pageopacity="0"
     inkscape:pagecheckerboard="1"
     inkscape:deskcolor="#505050"
     inkscape:zoom="1.02"
     inkscape:cx="399.5098"
     inkscape:cy="400"
     inkscape:window-width="1920"
     inkscape:window-height="1020"
     inkscape:window-x="0"
     inkscape:window-y="0"
     inkscape:window-maximized="1"
     inkscape:current-layer="svg1" />
  <path
     d="m 4 3 c -0.554688 0 -1 0.445312 -1 1 s 0.445312 1 1 1 s 1 -0.445312 1 -1 s -0.445312 -1 -1 -1 z m 4 0 c -0.554688 0 -1 0.445312 -1 1 s 0.445312 1 1 1 s 1 -0.445312 1 -1 s -0.445312 -1 -1 -1 z m 4 0 c -0.554688 0 -1 0.445312 -1 1 s 0.445312 1 1 1 s 1 -0.445312 1 -1 s -0.445312 -1 -1 -1 z m -8 4 c -0.554688 0 -1 0.445312 -1 1 s 0.445312 1 1 1 s 1 -0.445312 1 -1 s -0.445312 -1 -1 -1 z m 4 0 c -0.554688 0 -1 0.445312 -1 1 s 0.445312 1 1 1 s 1 -0.445312 1 -1 s -0.445312 -1 -1 -1 z m 4 0 c -0.554688 0 -1 0.445312 -1 1 s 0.445312 1 1 1 s 1 -0.445312 1 -1 s -0.445312 -1 -1 -1 z m -8 4 c -0.554688 0 -1 0.445312 -1 1 s 0.445312 1 1 1 s 1 -0.445312 1 -1 s -0.445312 -1 -1 -1 z m 4 0 c -0.554688 0 -1 0.445312 -1 1 s 0.445312 1 1 1 s 1 -0.445312 1 -1 s -0.445312 -1 -1 -1 z m 4 0 c -0.554688 0 -1 0.445312 -1 1 s 0.445312 1 1 1 s 1 -0.445312 1 -1 s -0.445312 -1 -1 -1 z m 0 0"
     fill="#2e3436"
     id="path1"
     style="fill:#ffffff" />
</svg>
