<?xml version="1.0" encoding="UTF-8" standalone="no"?>
<svg
   viewBox="0 0 48 48"
   version="1.1"
   id="svg2"
   sodipodi:docname="odysee.svg"
   inkscape:version="1.3.2 (091e20ef0f, 2023-11-25, custom)"
   xmlns:inkscape="http://www.inkscape.org/namespaces/inkscape"
   xmlns:sodipodi="http://sodipodi.sourceforge.net/DTD/sodipodi-0.dtd"
   xmlns="http://www.w3.org/2000/svg"
   xmlns:svg="http://www.w3.org/2000/svg">
  <defs
     id="defs2" />
  <sodipodi:namedview
     id="namedview2"
     pagecolor="#ffffff"
     bordercolor="#000000"
     borderopacity="0.25"
     inkscape:showpageshadow="2"
     inkscape:pageopacity="0.0"
     inkscape:pagecheckerboard="0"
     inkscape:deskcolor="#d1d1d1"
     inkscape:zoom="17"
     inkscape:cx="23.970588"
     inkscape:cy="24"
     inkscape:window-width="1920"
     inkscape:window-height="1020"
     inkscape:window-x="0"
     inkscape:window-y="0"
     inkscape:window-maximized="1"
     inkscape:current-layer="svg2" />
  <g
     fill="none"
     stroke="#000"
     stroke-linecap="round"
     stroke-linejoin="round"
     id="g2"
     style="fill:#d5d5d6;opacity:1;stroke:#ffffff;stroke-opacity:0.9999994;fill-opacity:1">
    <path
       d="m28.6055 15.2364c2.4292.8442 3.4308-4.3326 4.7848-6.7286 1.9988-3.537 5.8072-1.6239 5.9312 2.0933.1315 3.9449-3.7777 8.62-7.1773 11.5634-.917.794-.8758 1.4791.2493 2.1432 4.1734 2.4631 5.3273 9.08 6.23 12.3608 1.411 5.1268-7.4039 6.47-7.2271.6479.0734-2.4145.5889-5.4643-4.087-6.33 1.4231 10.76-5.408 11.4892-10.6662 11.5135-4.5613.021-4.1214-7.0987.7975-6.7785 2.2541.1467 3.7088-1.5174 2.6915-3.788a60.128 60.128 0 0 0 -3.5388-6.0309c.1017-.661-4.5 1.4927-7.875 4.3362-3.3193 2.7965-5.9063-2.82-2.2928-6.4794 2.2144-2.2426 8.5728-3.9874 8.5728-3.9874-.2907-4.051-4.3184-8.6219 2.293-12.9587s11.3031 3.0054 11.3141 8.4232z"
       id="path1"
       style="fill:#d5d5d6;stroke:#ffffff;stroke-opacity:0.9999994;fill-opacity:1" />
    <path
       d="m20.98 8.2586c-2.42.99-4.1551 1.553-3.3394 4.5854.7138 2.6538 2.6453 3.89 5.7318 2.4423 2.1189-.9938 2.9329-2.1683 2.4422-4.1369-.6183-2.4794-1.9328-4.078-4.8346-2.8908z"
       id="path2"
       style="fill:#d5d5d6;stroke:#ffffff;stroke-opacity:0.9999994;fill-opacity:1" />
  </g>
</svg>
