<?xml version="1.0" encoding="UTF-8" standalone="no"?>
<svg
   viewBox="0 0 576 512"
   version="1.1"
   id="svg1"
   sodipodi:docname="playstation.svg"
   inkscape:version="1.3.2 (091e20ef0f, 2023-11-25, custom)"
   xmlns:inkscape="http://www.inkscape.org/namespaces/inkscape"
   xmlns:sodipodi="http://sodipodi.sourceforge.net/DTD/sodipodi-0.dtd"
   xmlns="http://www.w3.org/2000/svg"
   xmlns:svg="http://www.w3.org/2000/svg">
  <defs
     id="defs1" />
  <sodipodi:namedview
     id="namedview1"
     pagecolor="#ffffff"
     bordercolor="#000000"
     borderopacity="0.25"
     inkscape:showpageshadow="2"
     inkscape:pageopacity="0.0"
     inkscape:pagecheckerboard="0"
     inkscape:deskcolor="#d1d1d1"
     inkscape:zoom="1.59375"
     inkscape:cx="287.68627"
     inkscape:cy="256"
     inkscape:window-width="1920"
     inkscape:window-height="1020"
     inkscape:window-x="0"
     inkscape:window-y="0"
     inkscape:window-maximized="1"
     inkscape:current-layer="svg1" />
  <!--!Font Awesome Free 6.6.0 by @fontawesome - https://fontawesome.com License - https://fontawesome.com/license/free Copyright 2024 Fonticons, Inc.-->
  <path
     fill="#ffffff"
     d="m 562.88747,369.30052 c -10.97997,13.83919 -37.70114,23.68257 -37.70114,23.68257 L 325.89501,464.71302 V 411.7927 l 146.62633,-52.43302 c 16.61571,-5.945 19.23924,-14.42395 5.63574,-18.90707 -13.50634,-4.48312 -37.99264,-3.21615 -54.60835,2.82632 l -97.65372,34.59799 v -54.96696 c 22.54295,-7.60181 45.76607,-13.25444 73.55608,-16.37313 39.74167,-4.38566 88.32561,0.58475 126.51259,15.10617 42.9482,13.64428 47.80659,33.81832 36.92379,47.65752 z M 344.84275,279.15081 V 143.6826 c 0,-15.88584 -2.91504,-30.50471 -17.78173,-34.69545 -11.36864,-3.70345 -18.46189,6.9196 -18.46189,22.80544 V 470.85294 L 217.45565,441.81012 V 37.647059 c 38.76999,7.211976 95.22453,24.267326 125.54091,34.500536 77.24846,26.606345 103.38662,59.742455 103.38662,134.298695 0,72.60706 -44.69722,100.188 -101.54043,72.70452 z M 50.13256,406.23753 C 6.0183419,393.76276 -1.3664171,367.74117 18.747334,352.82992 37.3064,338.99072 68.983129,328.5626 68.983129,328.5626 L 199.67393,281.97713 v 53.11523 l -94.05851,33.72086 c -16.615707,5.94501 -19.142072,14.42395 -5.635736,18.90707 13.506336,4.48312 37.992646,3.21616 54.608346,-2.82631 l 45.0859,-16.4706 v 47.56006 c -50.13863,9.0637 -98.52823,7.11452 -149.54137,-9.74591 z"
     id="path1"
     style="stroke-width:0.973134" />
</svg>
