<?xml version="1.0" encoding="UTF-8" standalone="no"?>
<svg
   viewBox="0 0 302.7 302.7"
   xml:space="preserve"
   version="1.1"
   id="svg1"
   sodipodi:docname="Roblox.svg"
   inkscape:version="1.3.2 (091e20ef0f, 2023-11-25, custom)"
   xmlns:inkscape="http://www.inkscape.org/namespaces/inkscape"
   xmlns:sodipodi="http://sodipodi.sourceforge.net/DTD/sodipodi-0.dtd"
   xmlns="http://www.w3.org/2000/svg"
   xmlns:svg="http://www.w3.org/2000/svg"><defs
     id="defs1" /><sodipodi:namedview
     id="namedview1"
     pagecolor="#ffffff"
     bordercolor="#000000"
     borderopacity="0.25"
     inkscape:showpageshadow="2"
     inkscape:pageopacity="0.0"
     inkscape:pagecheckerboard="0"
     inkscape:deskcolor="#d1d1d1"
     inkscape:zoom="2.6957382"
     inkscape:cx="151.16453"
     inkscape:cy="151.35001"
     inkscape:window-width="1920"
     inkscape:window-height="1020"
     inkscape:window-x="0"
     inkscape:window-y="0"
     inkscape:window-maximized="1"
     inkscape:current-layer="svg1" /><path
     d="M 129.65427,246.00688 C 39.885,222.85629 32.518901,220.91357 32.599847,220.50885 32.680793,220.02316 82.381724,26.480946 82.462669,26.4 c 0,0 43.710921,11.170567 97.054421,24.931412 53.3435,13.760843 97.13537,24.93141 97.21632,24.93141 0.16189,0 0.16189,0.323784 0.081,0.728516 -0.1619,1.214192 -49.78187,193.704112 -49.94377,193.866002 0,0.081 -43.79186,-11.08962 -97.21631,-24.85046 m 44.0347,-92.03577 c 2.59028,-10.1992 4.77582,-18.69855 4.85676,-18.94139 0.081,-0.40473 -1.86175,-0.97136 -18.7795,-5.34245 -10.36111,-2.67122 -19.02234,-4.77582 -19.10328,-4.69487 -0.24285,0.24284 -9.79449,37.7209 -9.71355,37.80184 0.1619,0.1619 37.80186,9.87544 37.8828,9.79449 0,-0.081 2.18555,-8.4184 4.85677,-18.61762"
     style="fill:#ffffff;stroke-width:0.809461"
     id="path1" /></svg>
